<svg xmlns="http://www.w3.org/2000/svg" viewBox="0 0 1200 750" role="img" aria-labelledby="title desc">
  <title id="title">AI infrastructure control room</title>
  <desc id="desc">Editorial illustration of AI infrastructure signals, cloud systems, and operational dashboards.</desc>
  <rect width="1200" height="750" fill="#10262d"/>
  <rect x="72" y="72" width="1056" height="606" rx="28" fill="#f5f1e7"/>
  <rect x="118" y="122" width="312" height="214" rx="18" fill="#163944"/>
  <rect x="466" y="122" width="616" height="214" rx="18" fill="#ffffff"/>
  <rect x="118" y="374" width="964" height="254" rx="18" fill="#ffffff"/>
  <g fill="none" stroke="#35a3a0" stroke-width="10" stroke-linecap="round">
    <path d="M168 280c54-96 108-96 162 0"/>
    <path d="M522 282c56-112 132-112 224 0s168 112 228 0"/>
    <path d="M178 560c94-168 186-168 276 0s174 168 252 0 152-168 234 0"/>
  </g>
  <g fill="#d9a441">
    <circle cx="178" cy="190" r="18"/>
    <circle cx="238" cy="190" r="18"/>
    <circle cx="298" cy="190" r="18"/>
    <circle cx="522" cy="190" r="14"/>
    <circle cx="574" cy="190" r="14"/>
    <circle cx="626" cy="190" r="14"/>
  </g>
  <g fill="#163944">
    <rect x="520" y="390" width="244" height="34" rx="17"/>
    <rect x="520" y="448" width="380" height="24" rx="12" opacity=".76"/>
    <rect x="520" y="498" width="292" height="24" rx="12" opacity=".58"/>
    <rect x="164" y="414" width="258" height="34" rx="17"/>
    <rect x="164" y="472" width="226" height="24" rx="12" opacity=".72"/>
    <rect x="164" y="522" width="306" height="24" rx="12" opacity=".52"/>
  </g>
</svg>
