<svg xmlns="http://www.w3.org/2000/svg" viewBox="0 0 1200 750" role="img" aria-labelledby="title desc">
  <title id="title">Market systems and capital flows</title>
  <desc id="desc">Editorial illustration of market flows, balance sheets, and macro signals.</desc>
  <rect width="1200" height="750" fill="#f3efe6"/>
  <circle cx="930" cy="170" r="118" fill="#1e5b64"/>
  <circle cx="270" cy="560" r="142" fill="#d8a23a"/>
  <rect x="110" y="100" width="980" height="550" rx="30" fill="#ffffff" stroke="#d8d1c3" stroke-width="4"/>
  <g fill="#12262c">
    <rect x="170" y="170" width="300" height="44" rx="22"/>
    <rect x="170" y="246" width="190" height="26" rx="13" opacity=".72"/>
    <rect x="170" y="292" width="258" height="26" rx="13" opacity=".52"/>
  </g>
  <g fill="none" stroke-linecap="round" stroke-linejoin="round">
    <path d="M540 510c78-182 158-234 240-156s160 70 244-24" stroke="#1e5b64" stroke-width="16"/>
    <path d="M540 566c90-78 176-98 258-60s158 28 230-30" stroke="#d8a23a" stroke-width="14"/>
    <path d="M540 432h500" stroke="#d8d1c3" stroke-width="4"/>
    <path d="M540 330h500" stroke="#d8d1c3" stroke-width="4"/>
    <path d="M540 228h500" stroke="#d8d1c3" stroke-width="4"/>
  </g>
  <g fill="#1e5b64">
    <rect x="178" y="404" width="62" height="148" rx="12"/>
    <rect x="270" y="342" width="62" height="210" rx="12"/>
    <rect x="362" y="454" width="62" height="98" rx="12"/>
  </g>
</svg>
