<svg xmlns="http://www.w3.org/2000/svg" viewBox="0 0 1200 750" role="img" aria-label="Technology Briefing: Gemini for Science and the AI Landscape">
  <rect width="1200" height="750" fill="#10262d"/>
  <rect x="72" y="72" width="1056" height="606" rx="30" fill="#f5f1e7" opacity=".98"/>
  <circle cx="972" cy="168" r="118" fill="#0f6b78" opacity=".95"/>
  <circle cx="220" cy="594" r="132" fill="#d9a441" opacity=".9"/>
  <path d="M154 500c110-190 222-190 334 0s220 190 324 0 186-190 278 0" fill="none" stroke="#0f6b78" stroke-width="18" stroke-linecap="round"/>
  <path d="M156 562c132-88 250-110 354-66s210 34 318-30 192-76 258-38" fill="none" stroke="#d9a441" stroke-width="14" stroke-linecap="round"/>
  <rect x="150" y="150" width="250" height="38" rx="19" fill="#172126"/>
  <rect x="150" y="220" width="420" height="24" rx="12" fill="#172126" opacity=".65"/>
  <rect x="150" y="270" width="330" height="24" rx="12" fill="#172126" opacity=".45"/>
  <text x="150" y="382" fill="#172126" font-family="Arial, sans-serif" font-size="54" font-weight="800">Technology Briefing</text>
</svg>